Patient4_TMGait_0pt6_01_left_11_EMG.mot
version=1
nRows=37
nColumns=33
inDegrees=no
endheader
time	1LAddLong	2LGlutMax	3LGlutMed	4LIliopsoas	5LSemiMemb	6LBicFemLong	7LRecFem	8LVastMed	9LVastLat	10LGasMed	11LTibAnt	12lTibPost	13LPeroneusLong	14LSol	15LExtDigLong	16LFlexDigLong	17RAddLong	18RGlutMax	19RGlutMed	20RIliopsoas	21RSemiMemb	22RBicFemLong	23RRecFem	24RVastMed	25RVastLat	26RGasMed	27RTibAnt	28RTibPost	29RPeroneusLong	30RSol	31RExtDigLong	32RFlexDigLong
14.185	0.007019	-0.042419	0.27084	0.01358	0.03418	-0.016632	0.041504	0.002136	-0.060425	-0.1297	0.016785	0.017853	0.014954	-0.057373	0.080719	0.010071	-0.058899	-0.057068	-0.071411	0.11795	0.41687	0.27847	-0.13931	0.12787	-0.48019	0.002747	0.054779	-0.007172	0.008392	-0.018158	-0.002594	-0.011749
14.186	0.002136	-0.048523	0.28229	-0.00412	0.006561	-0.063782	0.018921	0.002289	-0.063171	0.14542	0.031128	0.017395	-0.028076	0.011902	-0.001678	0.006714	-0.10361	-0.041809	-0.19516	0.058899	0.37674	0.18066	-0.4985	0.007019	-0.13321	0.002441	0.06958	-0.003815	-0.058899	-0.034485	0.001068	-0.012665
14.187	-0.000305	-0.052032	0.31143	-0.004578	-0.049744	-0.045013	0.011444	0.011139	-0.06073	0.21881	0.008698	0.02182	0.024567	0.047913	-0.013123	0.005493	-0.086823	-0.021362	-0.56519	-0.001831	0.44708	0.1683	-0.62973	0.13473	0.2002	-0.000763	0.067749	-0.00351	-0.028381	-0.059509	-0.001221	0.001068
14.188	0.003357	-0.046539	0.31845	0.002289	-0.05127	-0.091553	0.006104	-0.001221	-0.059204	0.15228	0.002136	-0.0354	0.042114	0.10986	0.009308	0.00824	-0.046082	0.10529	-0.35187	-0.056915	0.86243	0.22003	-0.19745	0.078888	0.15686	-0.002136	0.050964	-0.008698	0.056915	-0.011292	-0.005035	-0.000763
14.189	-0.000305	-0.047607	0.36713	0.009003	-0.036926	-0.1004	0.011444	0.038605	-0.063324	0.17059	0.001373	-0.037384	0.008698	0.057068	-0.016479	-0.011597	0.007782	0.17273	0.23941	-0.060883	0.78201	0.11978	0.002289	-0.15579	0.07782	-0.001678	0.089874	-0.005646	0.042572	-0.014496	0.000153	-0.005188
14.19	-0.001373	-0.055847	0.34653	0.013275	-0.069885	-0.13931	0.008392	0.002899	-0.066833	0.033264	0.012054	-0.018616	-0.036926	-0.24399	0.002136	0.023651	0.020599	0.17761	0.82123	-0.0383	0.57281	0.074158	-0.36407	-0.64636	0.41916	-0.002747	0.096741	0.000305	0.021667	-0.037537	-0.00061	-0.009155
14.191	0.020294	-0.086365	0.3479	0.00885	0.025177	-0.12192	0.007019	0.002136	-0.068054	-0.17975	0.014801	-0.014801	-0.09079	-0.30991	0.014343	0.050659	0.030975	0.070038	0.70984	-0.024567	0.49576	0.032806	-0.60852	-0.63797	0.5249	-0.002136	0.10422	-0.00473	-0.029602	-0.038147	-0.00473	-0.006104
14.192	0.023041	-0.05249	0.35294	0.00946	0.21866	0.002747	0.021362	0.00473	-0.083923	-0.27512	0.02533	-0.010223	-0.14038	-0.051727	0.019073	-0.001678	0.04837	-0.00473	0.63797	-0.075378	0.43564	-0.055084	-0.4805	-0.44846	0.61081	-0.006866	0.01358	-0.001526	-0.004578	-0.037537	0.002747	-0.011902
14.193	0.013275	-0.070343	0.37964	0.009003	0.15274	0.048523	0.009918	-0.001221	-0.088654	0.000305	0.006409	-0.003662	-0.077515	-0.095367	0.031891	-0.045013	0.088043	-0.029297	0.28442	-0.17151	0.31235	0.0354	-0.30365	-0.38498	0.56854	-0.003052	-0.073395	-0.000458	0.039673	-0.051575	-0.004578	-0.011597
14.194	0.009766	-0.031281	0.47012	0.014954	0.068207	0.050354	-0.002136	0.003662	-0.064392	0.16281	0.005951	-0.013885	-0.023193	-0.1062	0.045929	-0.11063	0.078735	0.023346	-0.14908	-0.09201	0.11429	0.11292	-0.30685	-0.20416	0.34927	0.001526	-0.043945	-0.006714	0.11826	-0.06012	-0.005341	-0.011139
14.195	0.012207	-0.05127	0.39368	-0.000458	0.026245	0.089417	-0.031891	0.002899	-0.06134	0.14954	-0.001373	-0.014496	-0.041504	0.001526	0.034332	-0.72464	0.093231	0.03067	-0.80063	-0.086975	0.29358	0.11673	-0.37842	0.20325	0.16327	-0.004425	0.027771	-0.000763	0.009613	-0.067749	-0.003967	-0.00824
14.196	0.024109	-0.018616	0.31632	-0.001373	-0.020447	0.12207	-0.028839	-0.006104	-0.058136	0.14786	-0.00351	-0.010986	-0.041351	-0.045471	0.011749	0.71869	0.019073	0.038605	-0.54627	-0.10681	0.3157	0.24567	-0.35675	0.56625	-0.062561	-0.00061	0.053253	-0.00351	-0.085754	-0.055695	-0.003052	-0.011292
14.197	0.010986	0.011902	0.4184	0.009613	-0.050354	0.075531	-0.045624	0.005188	-0.055542	0.26977	-0.006714	-0.012665	0.042267	-0.058136	0.015411	-0.050201	-0.011139	0.11307	0.79376	-0.15625	0.13092	0.29144	-0.33859	1.3586	-0.1944	-0.000458	-0.005341	-0.005493	-0.025177	0.018463	-0.00351	-0.010071
14.198	0.000458	0.035706	0.44327	0.028229	0.000305	0.037384	-0.009766	0.009003	-0.06897	0.16739	0.000458	-0.006409	0.12802	-0.03418	0.017395	0.27374	-0.031738	0.019989	1.7949	-0.024719	0.32425	0.15411	-0.38101	1.1816	-0.18158	0.006409	-0.068817	-0.001068	0.36194	0.024719	-0.004883	0.005798
14.199	0.013428	0.000458	0.4007	-0.01297	0.039063	-0.063782	-0.032501	0.000763	-0.060425	-0.52246	-0.00351	-0.013123	0.11749	-0.061035	-0.028992	-0.30411	-0.032043	-0.12024	0.38422	0.20813	0.25986	0.074158	-0.42725	0.47867	-0.020599	-0.00473	-0.033417	-0.001984	0.14511	0.013733	-0.005493	-0.010834
14.2	0.011292	-0.024719	0.40222	-0.004578	0.030823	-0.11292	-0.034637	0.006104	-0.063629	-0.20981	0.005798	0.000305	0.054932	-0.030975	-0.062866	0.31265	-0.018768	-0.11047	-0.25024	0.22598	0.32837	0.14008	-0.75943	0.21973	0.52292	-0.002441	0.019531	-0.006409	-0.095062	0.023193	-0.012207	-0.007935
14.201	0.015564	-0.045013	0.32349	-0.009308	-0.015259	-0.12833	-0.060272	0.009308	-0.052032	0.33203	0.019684	-0.015106	0.009613	0.12665	-0.0914	-0.014648	-0.030212	-0.07019	0.006104	0.12222	0.39856	0.14389	-0.80399	-0.28397	0.79544	-0.010376	0.03479	0.00061	-0.097046	0.006256	-0.003357	-0.012054
14.202	0.010986	-0.033722	0.31906	0.005798	0.009155	-0.075378	-0.03952	0.002899	-0.058594	0.47714	0.020294	-0.071259	0.15533	0.07782	-0.07782	-0.18829	-0.041199	-0.001068	-0.017548	0.016479	0.1471	0.066376	-0.48767	-0.79071	0.60715	-0.007324	0.038757	-0.005341	-0.032959	-0.00885	-0.002136	0.001221
14.203	0.001526	0.01236	0.44586	-0.011444	0.001526	-0.013275	-0.047913	-0.00412	-0.05188	0.625	0.00824	0.20767	0.1387	0.19684	-0.026093	0.00473	-0.044861	-0.040741	-0.37186	-0.032349	0.077515	0.10895	-0.17136	-1.0832	0.12283	-0.005493	0.020294	-0.005798	-0.01297	-0.028839	-0.002747	0.001678
14.204	0.010834	0.042267	0.49637	0.011139	-0.02533	0.001984	-0.04715	0.002899	-0.03952	0.36285	-0.003052	0.16586	0.45715	0.58823	0.002899	0.11154	0.009308	0.062561	-0.6871	0.007477	0.23544	0.10864	0.076752	-1.017	-0.20416	0.008545	0.096283	0.001373	0.002594	-0.028381	-0.007629	-0.005035
14.205	0.00885	0.020905	0.43793	0.006256	-0.066376	0.019684	-0.031586	-0.001678	-0.034943	0.30853	0.012665	0.000153	0.16983	0.77988	0.00946	0.010071	0.068512	0.016937	-0.39917	-0.054169	0.15625	0.17838	0.30365	-0.69992	-0.20493	-0.003052	0.21316	-0.006256	0.069122	-0.013733	-0.002441	-0.002747
14.206	0.018005	0.036621	0.49088	0.014954	-0.022736	-0.019989	-0.037079	0.004578	-0.028687	0.38315	0.036011	-0.67719	-0.093994	0.38315	-0.02655	-0.024261	0.07843	0.080719	0.63156	-0.11627	0.019531	0.38788	0.37582	-0.65979	0.7222	-0.005646	0.39368	-0.00351	0.012512	-0.043335	0.002136	0.002136
14.207	0.027161	0.058136	0.49011	0.015564	-0.01236	-0.054016	-0.036163	-0.002899	-0.022583	0.30975	0.03479	0.16083	-0.21088	0.040894	-0.032501	-0.017242	0.031738	0.02182	0.8667	-0.1471	-0.001831	0.32669	0.38513	-0.60226	0.63995	-0.009766	0.35034	-0.005646	0.009308	-0.063477	-0.004272	-0.001373
14.208	0.018005	0.040436	0.43991	0.010529	0.048981	-0.023193	-0.023346	0.005798	-0.032043	0.006409	0.016632	0.69992	0.055237	-0.063629	-0.047913	-0.034485	-0.028381	-0.066986	0.43167	0.10284	0.010986	0.27786	0.513	-0.34256	0.09201	-0.011902	0.006561	-0.008392	0.04425	-0.057373	-0.00473	-0.007324
14.209	0.011292	0.033569	0.40817	-0.002899	0.037994	-0.002747	-0.007935	0.005493	-0.031891	-0.27817	0.014496	-0.26566	-0.21484	0.21103	-0.045624	-0.019684	0.005798	-0.13702	-0.35904	0.25238	0.062103	0.13046	0.448	-0.33035	-0.6488	-0.006104	-0.29205	-0.000763	0.02182	-0.04776	-0.002289	-0.00061
14.21	0.010223	0.048218	0.40756	-0.00824	0.009613	0.009155	-0.016632	0.003052	-0.027466	-0.3302	0.008545	0.05722	0.24994	0.35584	-0.045929	-0.048218	0.032959	-0.066986	-0.42297	0.16068	0.043182	-0.073853	0.18799	0.15839	-0.69275	0.001373	-0.50049	-0.005035	0.006866	-0.041504	-0.002899	-0.006714
14.211	0.011139	0.034637	0.55161	-0.003052	0.003967	-0.014496	-0.021057	0.004425	-0.01236	-0.24719	-0.004272	-0.05188	0.24567	0.002747	-0.043793	0.013123	0.035095	-0.12817	-0.082245	-0.009918	0.19119	-0.10742	-0.007782	0.29556	-0.48782	0.006256	-0.37781	-0.001831	0.051422	-0.075989	0.000916	-0.009918
14.212	0.01236	0.036469	0.51682	0.012207	-0.001373	-0.045929	-0.024567	0.001984	-0.00351	-0.20676	-0.002136	-0.11444	0.10574	0.090332	0.03891	0.16296	0.009613	-0.12268	0.016785	-0.0737	0.2066	-0.095673	-0.11017	0.59128	-0.61935	0.001526	-0.32593	-0.000916	0.11169	-0.066376	-0.001984	-0.008087
14.213	0.005341	0.052643	0.49072	0.032959	-0.016479	-0.057068	-0.036774	0.001526	-0.022736	-0.31784	-0.012512	-0.087585	0.089874	0.085907	0.048523	-0.13657	0.014496	-0.1651	0.18906	-0.15747	0.21194	-0.062561	-0.11734	0.49286	-0.5397	-0.00412	-0.25909	-0.007019	0.057983	-0.039215	-0.003967	-0.003967
14.214	0.004578	0.074768	0.4773	0.026398	-0.021515	-0.053558	-0.029449	0.005035	0.000458	-0.38177	-0.00473	0.010529	0.21515	0.26962	0.048828	0.032349	0.036316	-0.21149	0.29846	-0.20783	0.20309	-0.065155	-0.54413	0.32623	-0.439	-0.005646	0.043488	-0.005798	-0.014191	-0.070343	-0.005951	-0.006409
14.215	0.006866	0.072479	0.47119	0.009003	-0.01236	-0.0914	-0.042114	0.00412	0.005951	-0.33508	0.002594	-0.001221	0.10742	0.059357	0.06897	0.15198	0.052643	-0.38879	-0.050964	-0.14816	-0.037537	-0.11078	-1.0136	-0.25085	-0.21469	-0.00824	0.35461	-0.00351	-0.036926	-0.037079	-0.007477	-0.016785
14.216	0.005798	0.080109	0.45929	0.010071	0	-0.10712	-0.034332	-0.005493	0.008545	-0.15182	0.018463	-0.004425	-0.06485	-0.20737	0.04837	0.061493	0.028992	-0.60913	-0.51712	-0.14542	0.03479	-0.002289	-1.0031	-0.46066	0.006866	-0.007629	0.51117	-0.004578	-0.072479	-0.030975	0.001984	-0.014496
14.217	0.000153	0.077057	0.43976	-0.001831	0.029297	-0.031586	-0.04303	0.00412	0.00351	0.033417	0.014191	-0.033875	-0.080872	-0.21683	0.042267	0.094757	0.019836	-0.80917	-0.47318	0.035095	0.29572	0.003967	-0.802	-0.20676	-0.063782	-0.006409	0.75714	0.001526	-0.09201	-0.090332	-0.003967	0.006256
14.218	0.002441	0.07309	0.43304	0.01709	0.041199	-0.061646	-0.025635	0.001984	0.007629	0.23789	0.023499	-0.086823	-0.19714	-0.19287	0.02594	0.043793	0.041962	-0.92804	-0.46753	0.17777	0.34012	-0.02533	-0.45898	-0.088654	0.25467	-0.001221	0.63019	0.001984	0.000305	-0.17288	-0.006104	0.001068
14.219	0.002441	0.046082	0.42602	-0.003052	0.016785	0.018768	-0.041504	0.001221	0.018158	0.29785	0.023499	0.11581	-0.23148	-0.27206	0.011444	0.074768	0.025635	-0.73135	-0.41458	0.27817	0.23941	-0.011292	-0.41229	0.036469	1.0559	0.002441	-0.37094	-0.001068	0.052643	-0.24551	-0.002289	-0.006714
14.22	0.006714	0.058899	0.3862	0.019684	-0.022583	0.077209	-0.032196	-0.001526	0.015869	0.2507	0.00885	0.033112	-0.19791	-0.68222	0.042114	0.011139	0.034485	-0.58807	-0.35812	0.34378	0.1384	-0.036011	-0.24475	-0.066528	1.2503	0.00061	-0.59708	0.002747	-0.035553	-0.29755	-0.001068	-0.007324
14.221	0.000153	0.03891	0.36652	0.001221	-0.019531	-0.002594	-0.03952	0.000763	0.018616	0.064392	-0.000153	0.056305	-0.25375	-0.35233	0.036316	-0.013885	0.087738	-0.56	-0.57114	0.27771	0.050507	-0.13016	-0.05722	-0.19394	0.97611	0.001373	-0.6279	-0.000458	-0.027466	-0.19562	-0.005798	0.015411
